HIERARCHY
ROOT Pelvis
{
	OFFSET 0.000000 0.941512 0.000000
	CHANNELS 6 Xposition Yposition Zposition Zrotation Yrotation Xrotation 
	JOINT Pelvis_L_Hip
	{
		OFFSET 0.000000 0.000000 0.000000
		CHANNELS 3 Zrotation Yrotation Xrotation
		JOINT L_Hip
		{
			OFFSET 0.062321 -0.080322 -0.016990
			CHANNELS 3 Zrotation Yrotation Xrotation
			JOINT L_Knee
			{
				OFFSET 0.093051 -0.381305 -0.029784
				CHANNELS 3 Zrotation Yrotation Xrotation
				JOINT L_Ankle
				{
					OFFSET -0.010371 -0.431000 -0.033614
					CHANNELS 3 Zrotation Yrotation Xrotation
					End Site #name: L_Foot
					{
						OFFSET 0.069299 -0.038670 0.119418
					}
				}
			}
		}
	}
	JOINT Pelvis_R_Hip
	{
		OFFSET 0.000000 0.000000 0.000000
		CHANNELS 3 Zrotation Yrotation Xrotation
		JOINT R_Hip
		{
			OFFSET -0.055334 -0.094904 -0.002373
			CHANNELS 3 Zrotation Yrotation Xrotation
			JOINT R_Knee
			{
				OFFSET -0.064207 -0.384370 -0.019592
				CHANNELS 3 Zrotation Yrotation Xrotation
				JOINT R_Ankle
				{
					OFFSET 0.025418 -0.419734 -0.065953
					CHANNELS 3 Zrotation Yrotation Xrotation
					End Site #name: R_Foot
					{
						OFFSET -0.057233 -0.039888 0.132134
					}
				}
			}
		}
	}
	JOINT Pelvis_Spine1
	{
		OFFSET 0.000000 0.000000 0.000000
		CHANNELS 3 Zrotation Yrotation Xrotation
		JOINT Spine1
		{
			OFFSET -0.005562 0.124093 -0.043360
			CHANNELS 3 Zrotation Yrotation Xrotation
			JOINT Spine2
			{
				OFFSET 0.012244 0.139499 0.029894
				CHANNELS 3 Zrotation Yrotation Xrotation
				JOINT Spine3
				{
					OFFSET -0.002556 0.056561 0.009225
					CHANNELS 3 Zrotation Yrotation Xrotation
					JOINT Spine3_Neck
					{
						OFFSET 0.000000 0.000000 0.000000
						CHANNELS 3 Zrotation Yrotation Xrotation
						JOINT Neck
						{
							OFFSET -0.005205 0.217920 -0.024551
							CHANNELS 3 Zrotation Yrotation Xrotation
							End Site #name: Head
							{
								OFFSET 0.002365 0.091850 0.046637
							}
						}
					}
					JOINT Spine3_L_Collar
					{
						OFFSET 0.000000 0.000000 0.000000
						CHANNELS 3 Zrotation Yrotation Xrotation
						JOINT L_Collar
						{
							OFFSET 0.072225 0.116603 -0.009480
							CHANNELS 3 Zrotation Yrotation Xrotation
							JOINT L_Shoulder
							{
								OFFSET 0.115937 -0.058643 -0.021018
								CHANNELS 3 Zrotation Yrotation Xrotation
								JOINT L_Elbow
								{
									OFFSET 0.021994 -0.254722 -0.024492
									CHANNELS 3 Zrotation Yrotation Xrotation
									End Site #name: L_Wrist
									{
										OFFSET 0.048810 -0.240214 0.103329
									}
								}
							}
						}
					}
					JOINT Spine3_R_Collar
					{
						OFFSET 0.000000 0.000000 0.000000
						CHANNELS 3 Zrotation Yrotation Xrotation
						JOINT R_Collar
						{
							OFFSET -0.073372 0.120704 -0.024611
							CHANNELS 3 Zrotation Yrotation Xrotation
							JOINT R_Shoulder
							{
								OFFSET -0.108089 -0.054969 -0.020504
								CHANNELS 3 Zrotation Yrotation Xrotation
								JOINT R_Elbow
								{
									OFFSET -0.033684 -0.260739 0.009889
									CHANNELS 3 Zrotation Yrotation Xrotation
									End Site #name: R_Wrist
									{
										OFFSET -0.067980 -0.232763 0.118463
									}
								}
							}
						}
					}
				}
			}
		}
	}
}
MOTION
Frames: 11
Frame Time: 0.041667
0.000000 0.951315 0.000000 -3.403631 -3.039854 4.282677 0.000000 0.000000 0.000000 -2.713588 -0.736252 -3.598007 2.085074 -0.309663 3.354378 0.092113 0.270644 -0.009147 0.000000 0.000000 0.000000 5.363657 0.002473 -1.531156 -1.652030 0.202716 -0.683114 4.057859 10.171930 2.052040 0.000000 0.000000 0.000000 8.505513 -0.327091 -9.592825 -2.160853 0.145888 -3.253027 0.594717 2.841185 11.953290 0.000000 0.000000 0.000000 -2.723718 1.449773 -0.140409 0.000000 0.000000 0.000000 16.320719 0.387774 3.555606 -19.117568 0.797229 -5.591509 -3.989828 -0.661322 4.440376 0.000000 0.000000 0.000000 -23.217207 3.934620 1.870989 18.166435 -0.481859 2.892438 7.925664 7.139669 -7.610880 
-0.000084 0.951327 -0.000715 -3.535113 -2.935709 4.422996 0.000000 0.000000 0.000000 -2.539327 -0.813287 -3.860542 2.099895 -0.315748 3.465660 0.005558 0.131743 0.065836 0.000000 0.000000 0.000000 5.568612 0.040838 -1.755105 -1.771150 0.221159 -0.676776 4.182511 10.217436 2.264239 0.000000 0.000000 0.000000 8.534743 -0.336398 -9.567258 -2.083449 0.127271 -3.388030 0.684040 2.848252 12.016914 0.000000 0.000000 0.000000 -2.756830 1.466486 -0.376971 0.000000 0.000000 0.000000 16.340817 0.231548 3.462048 -19.131102 0.625203 -6.272776 -4.448419 -1.042878 3.603336 0.000000 0.000000 0.000000 -23.421705 3.972829 1.864728 18.323357 -0.422620 2.680038 8.050366 7.332215 -7.887057 
0.000711 0.950865 -0.002512 -3.497121 -2.908287 4.668213 0.000000 0.000000 0.000000 -2.647165 -0.948869 -4.396959 2.125310 -0.329089 3.721894 0.090532 0.256481 -0.014448 0.000000 0.000000 0.000000 5.359227 0.163408 -2.288248 -1.629762 0.221510 -0.396173 4.198882 10.128412 2.345915 0.000000 0.000000 0.000000 8.722683 -0.411730 -9.290087 -2.197005 0.117919 -3.783269 0.588316 2.905797 11.969410 0.000000 0.000000 0.000000 -2.813950 1.495735 -0.507089 0.000000 0.000000 0.000000 16.546340 0.167429 3.468899 -19.294091 0.440214 -7.027088 -4.900411 -1.549264 2.293229 0.000000 0.000000 0.000000 -23.580719 4.144528 1.745519 18.517524 -0.347464 2.425108 8.236180 7.656791 -8.383097 
0.001827 0.949922 -0.004394 -3.300162 -2.992161 5.008926 0.000000 0.000000 0.000000 -2.991119 -1.101533 -5.029109 2.185653 -0.346244 3.967762 0.210830 0.528176 -0.073540 0.000000 0.000000 0.000000 4.818425 0.326431 -2.970259 -1.365290 0.211041 0.004636 4.261870 10.096181 2.480378 0.000000 0.000000 0.000000 8.965635 -0.467724 -9.191589 -2.443021 0.140828 -3.923994 0.379225 2.978800 11.710986 0.000000 0.000000 0.000000 -2.880125 1.531014 -0.191118 0.000000 0.000000 0.000000 16.667062 -0.010642 3.368071 -19.353692 0.312602 -7.509434 -5.227295 -1.974604 1.152671 0.000000 0.000000 0.000000 -23.895937 4.396985 1.600557 19.149831 -0.222470 2.027743 8.307598 8.213872 -9.590986 
0.001982 0.949593 -0.004904 -3.283337 -3.010032 5.095786 0.000000 0.000000 0.000000 -2.998997 -1.147949 -5.205102 2.137538 -0.345050 4.074169 0.239601 0.597708 -0.085060 0.000000 0.000000 0.000000 4.713995 0.354229 -3.088592 -1.331353 0.207659 0.030194 4.332741 10.100732 2.610761 0.000000 0.000000 0.000000 8.950749 -0.472230 -9.160764 -2.438685 0.144981 -3.850438 0.378492 2.958879 11.592848 0.000000 0.000000 0.000000 -2.935174 1.560981 0.034897 0.000000 0.000000 0.000000 16.606109 -0.250235 3.184820 -19.300196 0.219721 -7.851016 -5.460825 -2.243070 0.499640 0.000000 0.000000 0.000000 -23.901796 4.497414 1.526181 19.334248 -0.136742 1.757814 8.353177 8.509111 -10.211179 
0.002357 0.949531 -0.004841 -3.307907 -3.038203 5.133287 0.000000 0.000000 0.000000 -2.989024 -1.155637 -5.233141 2.109200 -0.341693 4.073382 0.242829 0.622116 -0.076733 0.000000 0.000000 0.000000 4.682265 0.354347 -3.085838 -1.319997 0.201525 -0.028642 4.380579 10.139321 2.677940 0.000000 0.000000 0.000000 8.899054 -0.468398 -9.144662 -2.402687 0.144193 -3.790532 0.410715 2.922510 11.586500 0.000000 0.000000 0.000000 -2.985258 1.588074 0.099417 0.000000 0.000000 0.000000 16.602870 -0.412590 3.065378 -19.372380 0.166995 -8.073840 -5.536401 -2.356029 0.191425 0.000000 0.000000 0.000000 -23.750405 4.541487 1.473547 19.340273 -0.083754 1.583371 8.294512 8.529112 -10.346552 
0.002928 0.949455 -0.004700 -3.354509 -3.071244 5.199396 0.000000 0.000000 0.000000 -2.981352 -1.164698 -5.267256 2.115193 -0.340771 4.032197 0.243049 0.641002 -0.066191 0.000000 0.000000 0.000000 4.669508 0.364333 -3.134174 -1.298231 0.195621 -0.062427 4.406133 10.172631 2.705817 0.000000 0.000000 0.000000 8.883258 -0.468958 -9.135037 -2.372736 0.139941 -3.797394 0.434677 2.901712 11.621732 0.000000 0.000000 0.000000 -3.010940 1.602230 0.131090 0.000000 0.000000 0.000000 16.610636 -0.495527 3.004252 -19.488596 0.157957 -8.138134 -5.494725 -2.315491 0.277356 0.000000 0.000000 0.000000 -23.655783 4.536548 1.469558 19.454093 -0.025934 1.392031 8.124470 8.374546 -10.248629 
0.003658 0.949266 -0.004478 -3.410566 -3.088512 5.272272 0.000000 0.000000 0.000000 -2.988246 -1.179837 -5.326812 2.148629 -0.344241 4.021028 0.263914 0.680914 -0.080690 0.000000 0.000000 0.000000 4.658308 0.373471 -3.178879 -1.261313 0.185805 -0.118483 4.421540 10.186533 2.726487 0.000000 0.000000 0.000000 8.899889 -0.470822 -9.143084 -2.360909 0.140318 -3.767618 0.455960 2.879887 11.668865 0.000000 0.000000 0.000000 -3.039729 1.618427 0.191889 0.000000 0.000000 0.000000 16.571267 -0.501962 2.987491 -19.535498 0.193411 -8.017752 -5.383759 -2.168526 0.659057 0.000000 0.000000 0.000000 -23.638089 4.537382 1.472328 19.582859 0.020591 1.237941 7.954411 8.159395 -10.005431 
0.004556 0.949155 -0.003901 -3.440035 -3.109054 5.334873 0.000000 0.000000 0.000000 -3.036367 -1.177446 -5.325904 2.171707 -0.344883 3.970263 0.285603 0.705472 -0.105662 0.000000 0.000000 0.000000 4.605040 0.372014 -3.166190 -1.226005 0.174181 -0.203106 4.435538 10.211473 2.737867 0.000000 0.000000 0.000000 8.924550 -0.471684 -9.164110 -2.365276 0.145171 -3.700017 0.447937 2.878097 11.701803 0.000000 0.000000 0.000000 -3.059831 1.629413 0.193919 0.000000 0.000000 0.000000 16.516520 -0.413256 3.035157 -19.472800 0.256292 -7.766783 -5.317624 -1.991787 1.235555 0.000000 0.000000 0.000000 -23.573737 4.537585 1.465010 19.517030 0.000209 1.300232 7.977581 8.072208 -9.763401 
0.005557 0.949106 -0.003180 -3.466065 -3.126083 5.401617 0.000000 0.000000 0.000000 -3.079899 -1.168892 -5.301654 2.166427 -0.340749 3.884438 0.294407 0.714777 -0.116223 0.000000 0.000000 0.000000 4.558591 0.376834 -3.184420 -1.220742 0.172124 -0.220218 4.424384 10.238169 2.701502 0.000000 0.000000 0.000000 8.923165 -0.478037 -9.131506 -2.368939 0.146675 -3.683983 0.445897 2.912616 11.758701 0.000000 0.000000 0.000000 -3.045709 1.621730 0.136454 0.000000 0.000000 0.000000 16.398173 -0.244955 3.128335 -19.294580 0.326159 -7.463569 -5.151937 -1.744204 1.933750 0.000000 0.000000 0.000000 -23.457665 4.500223 1.472454 19.342695 -0.051143 1.459410 8.024152 8.023841 -9.578270 
0.006477 0.949061 -0.002488 -3.557735 -3.081706 5.468519 0.000000 0.000000 0.000000 -3.035095 -1.184391 -5.356403 2.152284 -0.341114 3.933803 0.329784 0.717856 -0.178412 0.000000 0.000000 0.000000 4.641633 0.384036 -3.233201 -1.283441 0.185460 -0.169706 4.359972 10.196055 2.605686 0.000000 0.000000 0.000000 8.936768 -0.490386 -9.074329 -2.350571 0.144765 -3.675536 0.471379 2.948917 11.806445 0.000000 0.000000 0.000000 -3.032028 1.615635 0.241869 0.000000 0.000000 0.000000 16.278426 -0.136295 3.185094 -19.140930 0.403483 -7.129938 -4.812175 -1.386081 2.803169 0.000000 0.000000 0.000000 -23.422082 4.479545 1.472565 19.284825 -0.089444 1.579651 7.926159 7.873425 -9.371504 
